<svg width="20" height="20" viewBox="0 0 20 20" fill="none" xmlns="http://www.w3.org/2000/svg">
<path d="M0 6C0 2.68629 2.68629 0 6 0H14C17.3137 0 20 2.68629 20 6V14C20 17.3137 17.3137 20 14 20H6C2.68629 20 0 17.3137 0 14V6Z" fill="#6366F1"/>
<path d="M9.93457 3.93243C9.93457 3.93243 11.168 7.5377 11.8701 8.1905C12.5721 8.8433 15.9346 9.93243 15.9346 9.93243C15.9346 9.93243 12.6442 10.9002 11.8701 11.6744C11.0959 12.4486 9.93457 15.9324 9.93457 15.9324C9.93457 15.9324 9.28177 12.9571 7.99909 11.6744C6.71641 10.3917 3.93457 9.93243 3.93457 9.93243C3.93457 9.93243 7.22489 8.96469 7.99909 8.1905C8.77328 7.41631 9.93457 3.93243 9.93457 3.93243Z" fill="white"/>
</svg>
