<svg width="32" height="32" viewBox="0 0 32 32" fill="none" xmlns="http://www.w3.org/2000/svg">
<path d="M27.9997 19.6706C24.3159 21.6324 20.1976 22.6706 15.9997 22.6706C11.8017 22.6706 7.6834 21.6324 3.99967 19.6706V24C3.99967 24.7364 4.59663 25.3333 5.33301 25.3333H26.6663C27.4027 25.3333 27.9997 24.7364 27.9997 24V19.6706ZM16.0127 14.6667C16.7491 14.6667 17.346 15.2636 17.346 16C17.346 16.7364 16.7491 17.3333 16.0127 17.3333H15.9997C15.2633 17.3333 14.6663 16.7364 14.6663 16C14.6663 15.2636 15.2633 14.6667 15.9997 14.6667H16.0127ZM27.9997 10.6667C27.9997 9.9303 27.4027 9.33334 26.6663 9.33334H5.33301C4.59663 9.33334 3.99967 9.9303 3.99967 10.6667V16.599C7.60352 18.8212 11.7565 20.0039 15.9997 20.0039C20.2428 20.0039 24.3958 18.8212 27.9997 16.599V10.6667ZM19.9997 5.33334C19.9997 4.97972 19.8591 4.64068 19.609 4.39064C19.359 4.14059 19.02 4.00001 18.6663 4.00001H13.333C12.9794 4.00001 12.6403 4.14059 12.3903 4.39064C12.1403 4.64068 11.9997 4.97972 11.9997 5.33334V6.66668H19.9997V5.33334ZM22.6663 6.66668H26.6663C28.8755 6.66668 30.6663 8.45754 30.6663 10.6667V24C30.6663 26.2091 28.8755 28 26.6663 28H5.33301C3.12387 28 1.33301 26.2091 1.33301 24V10.6667C1.33301 8.45754 3.12387 6.66668 5.33301 6.66668H9.33301V5.33334C9.33301 4.27248 9.75474 3.25536 10.5049 2.50522C11.255 1.75507 12.2721 1.33334 13.333 1.33334H18.6663C19.7272 1.33334 20.7443 1.75507 21.4945 2.50522C22.2446 3.25536 22.6663 4.27248 22.6663 5.33334V6.66668Z" fill="white"/>
</svg>
