<svg width="20" height="20" viewBox="0 0 20 20" fill="none" xmlns="http://www.w3.org/2000/svg">
<g clip-path="url(#clip0_89_734)">
<path d="M17.4997 9.16668C17.4997 8.94566 17.4118 8.73376 17.2555 8.57748C17.0993 8.4212 16.8874 8.33334 16.6663 8.33334H15.833V17.5H16.6663C16.8874 17.5 17.0993 17.4121 17.2555 17.2559C17.4118 17.0996 17.4997 16.8877 17.4997 16.6667V9.16668ZM11.6663 14.1667C12.1266 14.1667 12.4997 14.5398 12.4997 15C12.4997 15.4602 12.1266 15.8333 11.6663 15.8333H8.33301C7.87277 15.8333 7.49967 15.4602 7.49967 15C7.49967 14.5398 7.87277 14.1667 8.33301 14.1667H11.6663ZM11.6663 10.8333C12.1266 10.8333 12.4997 11.2064 12.4997 11.6667C12.4997 12.1269 12.1266 12.5 11.6663 12.5H8.33301C7.87277 12.5 7.49967 12.1269 7.49967 11.6667C7.49967 11.2064 7.87277 10.8333 8.33301 10.8333H11.6663ZM11.6663 7.50001C12.1266 7.50001 12.4997 7.87311 12.4997 8.33334C12.4997 8.79358 12.1266 9.16668 11.6663 9.16668H8.33301C7.87277 9.16668 7.49967 8.79358 7.49967 8.33334C7.49967 7.87311 7.87277 7.50001 8.33301 7.50001H11.6663ZM11.6663 4.16668C12.1266 4.16668 12.4997 4.53977 12.4997 5.00001C12.4997 5.46025 12.1266 5.83334 11.6663 5.83334H8.33301C7.87277 5.83334 7.49967 5.46025 7.49967 5.00001C7.49967 4.53977 7.87277 4.16668 8.33301 4.16668H11.6663ZM2.49967 16.6667C2.49967 16.8877 2.58753 17.0996 2.74381 17.2559C2.9001 17.4121 3.11199 17.5 3.33301 17.5H4.16634V10.8333H3.33301C3.11199 10.8333 2.9001 10.9212 2.74381 11.0775C2.58753 11.2338 2.49967 11.4457 2.49967 11.6667V16.6667ZM14.1663 3.33334C14.1663 3.11233 14.0785 2.90043 13.9222 2.74415C13.7659 2.58787 13.554 2.50001 13.333 2.50001H6.66634C6.44533 2.50001 6.23343 2.58787 6.07715 2.74415C5.92087 2.90043 5.83301 3.11233 5.83301 3.33334V17.5H14.1663V3.33334ZM15.833 6.66668H16.6663C17.3294 6.66668 17.9651 6.93026 18.4339 7.3991C18.9028 7.86794 19.1663 8.50363 19.1663 9.16668V16.6667C19.1663 17.3297 18.9028 17.9654 18.4339 18.4343C17.9651 18.9031 17.3294 19.1667 16.6663 19.1667H3.33301C2.66997 19.1667 2.03427 18.9031 1.56543 18.4343C1.09659 17.9654 0.833008 17.3297 0.833008 16.6667V11.6667C0.833008 11.0036 1.09659 10.3679 1.56543 9.8991C2.03427 9.43026 2.66997 9.16668 3.33301 9.16668H4.16634V3.33334C4.16634 2.6703 4.42992 2.03461 4.89876 1.56577C5.3676 1.09692 6.0033 0.833344 6.66634 0.833344H13.333C13.996 0.833344 14.6317 1.09692 15.1006 1.56577C15.5694 2.03461 15.833 2.6703 15.833 3.33334V6.66668Z" fill="#334155"/>
</g>
<defs>
<clipPath id="clip0_89_734">
<rect width="20" height="20" fill="white"/>
</clipPath>
</defs>
</svg>
