<svg width="32" height="32" viewBox="0 0 32 32" fill="none" xmlns="http://www.w3.org/2000/svg">
<path d="M26.667 16.0006C26.667 15.2642 26.07 14.6673 25.3337 14.6673H6.66699C5.93061 14.6673 5.33366 15.2642 5.33366 16.0006V21.3339C5.33398 22.07 5.93081 22.6673 6.66699 22.6673H25.3337C26.0698 22.6673 26.6667 22.07 26.667 21.3339V16.0006ZM9.34668 17.3339C10.0831 17.3339 10.68 17.9309 10.68 18.6673C10.6797 19.4034 10.0829 20.0006 9.34668 20.0006H9.33366C8.59748 20.0006 8.00065 19.4034 8.00033 18.6673C8.00033 17.9309 8.59728 17.3339 9.33366 17.3339H9.34668ZM22.68 17.3339C23.4164 17.3339 24.0133 17.9309 24.0133 18.6673C24.013 19.4034 23.4162 20.0006 22.68 20.0006H22.667C21.9308 20.0006 21.334 19.4034 21.3337 18.6673C21.3337 17.9309 21.9306 17.3339 22.667 17.3339H22.68ZM11.1696 7.99929C10.898 7.99307 10.6307 8.0709 10.404 8.22064C10.1774 8.3704 10.0022 8.58567 9.90137 8.83783L8.63704 12.0006H23.3545L22.098 8.90033L22.085 8.86648C21.9907 8.61403 21.8212 8.39619 21.6006 8.24148C21.3837 8.08953 21.1268 8.00458 20.8623 7.99929L11.2008 8.00059C11.1906 8.00059 11.1798 7.99952 11.1696 7.99929L11.2008 6.66726V6.63861L11.1696 7.99929ZM29.3337 21.3339C29.3334 23.0746 28.2194 24.5499 26.667 25.0995V26.6673C26.6667 27.4034 26.0698 28.0006 25.3337 28.0006C24.5975 28.0006 24.0007 27.4034 24.0003 26.6673V25.3339H8.00033V26.6673C8 27.4034 7.40317 28.0006 6.66699 28.0006C5.93081 28.0006 5.33398 27.4034 5.33366 26.6673V25.0995C3.78126 24.5499 2.66725 23.0746 2.66699 21.3339V16.0006C2.66699 14.6968 3.29275 13.5407 4.25814 12.8105L3.05762 11.61C2.53692 11.0893 2.53692 10.2439 3.05762 9.72325C3.57823 9.20302 4.42242 9.20302 4.94303 9.72325L6.17871 10.9589L7.4248 7.84694C7.72739 7.09045 8.25415 6.44456 8.93392 5.99538C9.60577 5.5516 10.3962 5.32279 11.2008 5.33523L20.8753 5.33392L21.1761 5.34825C21.8774 5.40817 22.5526 5.65177 23.1318 6.05788C23.7836 6.51488 24.2827 7.15652 24.568 7.89903L25.8128 10.9667L27.0576 9.72325C27.5782 9.20302 28.4224 9.20302 28.943 9.72325C29.4637 10.2439 29.4637 11.0893 28.943 11.61L27.7412 12.8105C28.7071 13.5407 29.3337 14.6964 29.3337 16.0006V21.3339Z" fill="white"/>
</svg>
