<svg width="33" height="32" viewBox="0 0 33 32" fill="none" xmlns="http://www.w3.org/2000/svg">
<path d="M4.49954 28V24C4.49954 23.2636 5.09649 22.6666 5.83287 22.6666C6.56925 22.6666 7.16621 23.2636 7.16621 24V28C7.16621 28.7364 6.56925 29.3333 5.83287 29.3333C5.09649 29.3333 4.49954 28.7364 4.49954 28ZM9.83287 28V18.6666C9.83287 17.9303 10.4298 17.3333 11.1662 17.3333C11.9026 17.3333 12.4995 17.9303 12.4995 18.6666V28C12.4995 28.7364 11.9026 29.3333 11.1662 29.3333C10.4298 29.3333 9.83287 28.7364 9.83287 28ZM15.1662 28V21.3333C15.1662 20.5969 15.7632 20 16.4995 20C17.2359 20 17.8329 20.5969 17.8329 21.3333V28C17.8329 28.7364 17.2359 29.3333 16.4995 29.3333C15.7632 29.3333 15.1662 28.7364 15.1662 28ZM20.4995 28V18.6666C20.4995 17.9303 21.0965 17.3333 21.8329 17.3333C22.5693 17.3333 23.1662 17.9303 23.1662 18.6666V28C23.1662 28.7364 22.5693 29.3333 21.8329 29.3333C21.0965 29.3333 20.4995 28.7364 20.4995 28ZM25.8329 28V13.3333C25.8329 12.5969 26.4298 12 27.1662 12C27.9026 12 28.4995 12.5969 28.4995 13.3333V28C28.4995 28.7364 27.9026 29.3333 27.1662 29.3333C26.4298 29.3333 25.8329 28.7364 25.8329 28ZM28.8902 3.05727C29.4109 2.53657 30.2549 2.53657 30.7756 3.05727C31.2963 3.57797 31.2963 4.42199 30.7756 4.94269L19.2482 16.4713L19.2469 16.47C19.0614 16.6557 18.8422 16.8043 18.5998 16.9049C18.3568 17.0058 18.0959 17.0573 17.8329 17.0573C17.5698 17.0573 17.3089 17.0058 17.0659 16.9049C16.8233 16.8042 16.6031 16.656 16.4175 16.47V16.4713L12.4995 12.5534L4.10891 20.9427C3.5882 21.4633 2.74416 21.4634 2.2235 20.9427C1.70286 20.422 1.70283 19.5779 2.2235 19.0573L11.0868 10.1953L11.2326 10.0625C11.5885 9.771 12.0368 9.61066 12.5008 9.61066L12.6975 9.61977C13.1551 9.66511 13.5854 9.86742 13.9136 10.1953H13.9149L13.4422 10.6666L12.9709 11.138L13.9149 10.1953L17.8329 14.1133L28.8902 3.05727Z" fill="white"/>
</svg>
