<svg width="20" height="20" viewBox="0 0 20 20" fill="none" xmlns="http://www.w3.org/2000/svg">
<path d="M1.66699 15.8333V2.50001C1.66699 2.03977 2.04009 1.66667 2.50033 1.66667C2.96056 1.66667 3.33366 2.03977 3.33366 2.50001V15.8333C3.33366 16.0544 3.42152 16.2663 3.5778 16.4225C3.73408 16.5788 3.94598 16.6667 4.16699 16.6667H17.5003C17.9606 16.6667 18.3337 17.0398 18.3337 17.5C18.3337 17.9602 17.9606 18.3333 17.5003 18.3333H4.16699C3.50395 18.3333 2.86825 18.0698 2.39941 17.6009C1.93057 17.1321 1.66699 16.4964 1.66699 15.8333ZM5.83366 14.1667V11.6667C5.83366 11.2064 6.20676 10.8333 6.66699 10.8333C7.12723 10.8333 7.50033 11.2064 7.50033 11.6667V14.1667C7.50033 14.6269 7.12723 15 6.66699 15C6.20676 15 5.83366 14.6269 5.83366 14.1667ZM10.0003 14.1667V4.16667C10.0003 3.70643 10.3734 3.33334 10.8337 3.33334C11.2939 3.33334 11.667 3.70643 11.667 4.16667V14.1667C11.667 14.6269 11.2939 15 10.8337 15C10.3734 15 10.0003 14.6269 10.0003 14.1667ZM14.167 14.1667V7.50001C14.167 7.03977 14.5401 6.66667 15.0003 6.66667C15.4606 6.66667 15.8337 7.03977 15.8337 7.50001V14.1667C15.8337 14.6269 15.4606 15 15.0003 15C14.5401 15 14.167 14.6269 14.167 14.1667Z" fill="#334155"/>
</svg>
