<svg width="14" height="14" viewBox="0 0 14 14" fill="none" xmlns="http://www.w3.org/2000/svg">
<g clip-path="url(#clip0_89_744)">
<path d="M14.0113 7C14.0113 8.38447 13.6004 9.73785 12.8306 10.889C12.0608 12.0401 10.9667 12.9373 9.68657 13.4672C8.40646 13.997 6.99786 14.1356 5.6389 13.8655C4.27994 13.5954 3.03166 12.9287 2.0519 11.9497C1.07215 10.9708 0.404928 9.7235 0.134614 8.36563C-0.135699 7.00776 0.00303543 5.6003 0.533275 4.32122C1.06351 3.04213 1.96144 1.94888 3.11351 1.17971C4.26558 0.410543 5.62005 -1.65096e-08 7.00563 0V2.8C6.17428 2.8 5.3616 3.04632 4.67036 3.50783C3.97912 3.96933 3.44036 4.62528 3.12222 5.39273C2.80407 6.16018 2.72083 7.00466 2.88302 7.81938C3.04521 8.6341 3.44554 9.38247 4.0334 9.96985C4.62125 10.5572 5.37022 10.9572 6.18559 11.1193C7.00097 11.2814 7.84613 11.1982 8.6142 10.8803C9.38226 10.5624 10.0387 10.0241 10.5006 9.33339C10.9625 8.64271 11.209 7.83068 11.209 7H14.0113Z" fill="white"/>
<path d="M11.0765 0C11.0765 0 11.6798 1.76203 12.0232 2.08108C12.3666 2.40013 14.0113 2.93243 14.0113 2.93243C14.0113 2.93243 12.4019 3.4054 12.0232 3.78378C11.6445 4.16216 11.0765 5.86486 11.0765 5.86486C11.0765 5.86486 10.7572 4.41068 10.1298 3.78378C9.50237 3.15689 8.14168 2.93243 8.14168 2.93243C8.14168 2.93243 9.75108 2.45946 10.1298 2.08108C10.5084 1.7027 11.0765 0 11.0765 0Z" fill="white"/>
<path d="M64.9735 3.20319H66.7333V11.2H64.9735V3.20319Z" fill="white"/>
<path d="M59.3177 8.10879H61.3913L60.3825 5.17439H60.3601L59.3177 8.10879ZM59.4858 3.20319H61.2904L64.2832 11.2H62.4562L61.8509 9.41919H58.8581L58.2304 11.2H56.4594L59.4858 3.20319Z" fill="white"/>
<path d="M53.9367 3.20319H55.5284V11.2H53.9367V3.20319Z" fill="white"/>
<path d="M47.3882 7.19038C47.4106 6.81704 47.5041 6.50718 47.6685 6.26078C47.8329 6.01438 48.0421 5.81651 48.2962 5.66718C48.5502 5.51784 48.8342 5.41331 49.148 5.35358C49.4694 5.28638 49.7907 5.25278 50.112 5.25278C50.4035 5.25278 50.6986 5.27518 50.9975 5.31998C51.2964 5.35731 51.5692 5.43571 51.8158 5.55518C52.0624 5.67464 52.2641 5.84264 52.4211 6.05918C52.578 6.26824 52.6565 6.54824 52.6565 6.89918V9.91198C52.6565 10.1733 52.6714 10.4234 52.7013 10.6624C52.7312 10.9013 52.7835 11.0805 52.8582 11.2H51.2441C51.2142 11.1104 51.1881 11.0208 51.1657 10.9312C51.1507 10.8341 51.1395 10.737 51.132 10.64C50.878 10.9013 50.5791 11.0842 50.2353 11.1888C49.8916 11.2933 49.5404 11.3456 49.1817 11.3456C48.9052 11.3456 48.6474 11.312 48.4082 11.2448C48.1691 11.1776 47.9599 11.073 47.7805 10.9312C47.6012 10.7893 47.4592 10.6101 47.3546 10.3936C47.2575 10.177 47.2089 9.91944 47.2089 9.62078C47.2089 9.29224 47.2649 9.02344 47.377 8.81438C47.4966 8.59784 47.646 8.42611 47.8254 8.29918C48.0122 8.17224 48.2214 8.07891 48.4531 8.01918C48.6922 7.95198 48.9313 7.89971 49.1705 7.86238C49.4096 7.82504 49.645 7.79518 49.8766 7.77278C50.1083 7.75038 50.3138 7.71678 50.4931 7.67198C50.6725 7.62718 50.8144 7.56371 50.9191 7.48158C51.0237 7.39198 51.0723 7.26504 51.0648 7.10078C51.0648 6.92904 51.0349 6.79464 50.9751 6.69758C50.9228 6.59304 50.8481 6.51464 50.7509 6.46238C50.6613 6.40264 50.5529 6.36531 50.4259 6.35038C50.3063 6.32798 50.1755 6.31678 50.0336 6.31678C49.7197 6.31678 49.4731 6.38398 49.2938 6.51838C49.1144 6.65278 49.0098 6.87678 48.9799 7.19038H47.3882ZM51.0648 8.36638C50.9975 8.42611 50.9116 8.47464 50.807 8.51198C50.7098 8.54184 50.6015 8.56798 50.4819 8.59038C50.3698 8.61278 50.2503 8.63144 50.1232 8.64638C49.9962 8.66131 49.8692 8.67998 49.7421 8.70238C49.6226 8.72478 49.503 8.75464 49.3834 8.79198C49.2713 8.82931 49.1705 8.88158 49.0808 8.94878C48.9986 9.00851 48.9313 9.08691 48.879 9.18398C48.8267 9.28104 48.8006 9.40424 48.8006 9.55358C48.8006 9.69544 48.8267 9.81491 48.879 9.91198C48.9313 10.009 49.0023 10.0874 49.092 10.1472C49.1817 10.1994 49.2863 10.2368 49.4058 10.2592C49.5254 10.2816 49.6487 10.2928 49.7757 10.2928C50.0896 10.2928 50.3325 10.2405 50.5043 10.136C50.6762 10.0314 50.8032 9.90824 50.8854 9.76638C50.9676 9.61704 51.0162 9.46771 51.0312 9.31838C51.0536 9.16904 51.0648 9.04958 51.0648 8.95998V8.36638Z" fill="white"/>
<path d="M46.2022 4.51359H44.6105V3.20319H46.2022V4.51359ZM44.6105 5.40959H46.2022V11.2H44.6105V5.40959Z" fill="white"/>
<path d="M42.0748 7.44798C41.9702 6.78344 41.5778 6.45118 40.8978 6.45118C40.6438 6.45118 40.4308 6.51091 40.2589 6.63038C40.087 6.74238 39.9451 6.89171 39.833 7.07838C39.7284 7.25758 39.6536 7.45918 39.6088 7.68318C39.564 7.89971 39.5415 8.11624 39.5415 8.33278C39.5415 8.54184 39.564 8.75464 39.6088 8.97118C39.6536 9.18771 39.7246 9.38558 39.8218 9.56478C39.9264 9.73651 40.0646 9.87838 40.2365 9.99038C40.4084 10.1024 40.6176 10.1584 40.8642 10.1584C41.2453 10.1584 41.5367 10.0538 41.7385 9.84478C41.9477 9.62824 42.0785 9.34078 42.1308 8.98238H43.6665C43.5618 9.75144 43.2629 10.3376 42.7697 10.7408C42.2765 11.144 41.6451 11.3456 40.8754 11.3456C40.442 11.3456 40.0422 11.2746 39.676 11.1328C39.3174 10.9834 39.011 10.7781 38.7569 10.5168C38.5028 10.2554 38.3048 9.94558 38.1628 9.58718C38.0208 9.22131 37.9499 8.82184 37.9499 8.38878C37.9499 7.94078 38.0134 7.52638 38.1404 7.14558C38.2749 6.75731 38.4692 6.42504 38.7233 6.14878C38.9773 5.86504 39.2875 5.64478 39.6536 5.48798C40.0198 5.33118 40.4383 5.25278 40.909 5.25278C41.2528 5.25278 41.5816 5.29758 41.8954 5.38718C42.2168 5.47678 42.5007 5.61491 42.7473 5.80158C43.0014 5.98078 43.2069 6.20851 43.3638 6.48478C43.5207 6.75358 43.6104 7.07464 43.6328 7.44798H42.0748Z" fill="white"/>
<path d="M36.9212 11.2001H35.408V10.3937H35.3744C35.1726 10.7297 34.9111 10.9723 34.5898 11.1217C34.2684 11.271 33.9396 11.3457 33.6034 11.3457C33.1774 11.3457 32.8262 11.2897 32.5497 11.1777C32.2807 11.0657 32.0677 10.9089 31.9108 10.7073C31.7539 10.4982 31.6418 10.2481 31.5745 9.95686C31.5148 9.65819 31.4849 9.32966 31.4849 8.97126V5.40966H33.0765V8.68006C33.0765 9.15793 33.1513 9.51633 33.3007 9.75526C33.4502 9.98673 33.7155 10.1025 34.0966 10.1025C34.53 10.1025 34.8438 9.97553 35.0381 9.72166C35.2324 9.46033 35.3296 9.03473 35.3296 8.44486V5.40966H36.9212V11.2001Z" fill="white"/>
<path d="M26.7779 5.40962H28.2911V6.48482H28.3135C28.3882 6.30562 28.4891 6.14135 28.6162 5.99202C28.7432 5.83522 28.8889 5.70455 29.0533 5.60002C29.2177 5.48802 29.3933 5.40215 29.5801 5.34242C29.767 5.28269 29.9612 5.25282 30.163 5.25282C30.2676 5.25282 30.3834 5.27149 30.5105 5.30882V6.78722C30.4358 6.77229 30.3461 6.76109 30.2415 6.75362C30.1369 6.73869 30.036 6.73122 29.9388 6.73122C29.6474 6.73122 29.4008 6.77975 29.199 6.87682C28.9973 6.97389 28.8329 7.10829 28.7058 7.28002C28.5863 7.44429 28.5003 7.63842 28.448 7.86242C28.3957 8.08642 28.3696 8.32909 28.3696 8.59042V11.2H26.7779V5.40962Z" fill="white"/>
<path d="M23.9733 5.89121C23.9434 5.68961 23.8761 5.50668 23.7715 5.34241C23.6669 5.17068 23.5361 5.02134 23.3792 4.89441C23.2223 4.76748 23.0429 4.67041 22.8412 4.60321C22.6469 4.52854 22.4414 4.49121 22.2247 4.49121C21.8286 4.49121 21.4923 4.56961 21.2159 4.72641C20.9394 4.87574 20.7152 5.08108 20.5433 5.34241C20.3714 5.59628 20.2444 5.88748 20.1622 6.21601C20.0875 6.54454 20.0501 6.88428 20.0501 7.23521C20.0501 7.57121 20.0875 7.89974 20.1622 8.22081C20.2444 8.53441 20.3714 8.81814 20.5433 9.07201C20.7152 9.32588 20.9394 9.53121 21.2159 9.68801C21.4923 9.83734 21.8286 9.91201 22.2247 9.91201C22.7627 9.91201 23.1812 9.74774 23.4801 9.41921C23.7865 9.09068 23.9733 8.65761 24.0405 8.12001H25.7443C25.6995 8.62028 25.5836 9.07201 25.3968 9.47521C25.21 9.87841 24.9634 10.2219 24.657 10.5056C24.3506 10.7893 23.992 11.0059 23.581 11.1552C23.17 11.3045 22.7179 11.3792 22.2247 11.3792C21.6119 11.3792 21.0589 11.2747 20.5657 11.0656C20.08 10.8491 19.669 10.5541 19.3327 10.1808C18.9965 9.80748 18.7387 9.37068 18.5593 8.87041C18.38 8.36268 18.2903 7.81761 18.2903 7.23521C18.2903 6.63788 18.38 6.08534 18.5593 5.57761C18.7387 5.06241 18.9965 4.61441 19.3327 4.23361C19.669 3.85281 20.08 3.55414 20.5657 3.33761C21.0589 3.12108 21.6119 3.01281 22.2247 3.01281C22.6656 3.01281 23.0803 3.07628 23.4689 3.20321C23.8649 3.33014 24.2161 3.51681 24.5225 3.76321C24.8364 4.00214 25.0942 4.30081 25.2959 4.65921C25.4977 5.01761 25.6247 5.42828 25.677 5.89121H23.9733Z" fill="white"/>
</g>
<defs>
<clipPath id="clip0_89_744">
<rect width="14" height="14" fill="white"/>
</clipPath>
</defs>
</svg>
