<svg width="20" height="20" viewBox="0 0 20 20" fill="none" xmlns="http://www.w3.org/2000/svg">
<path d="M2.5 16.6667V3.33334C2.5 2.6703 2.76358 2.03461 3.23242 1.56577C3.70126 1.09692 4.33696 0.833344 5 0.833344H11.8099L12.0573 0.845551C12.6295 0.902489 13.1674 1.15559 13.5775 1.56577L15.5892 3.57748C15.9146 3.90292 15.9146 4.43043 15.5892 4.75587C15.2638 5.08131 14.7362 5.08131 14.4108 4.75587L12.3991 2.74415C12.2624 2.60737 12.0829 2.52304 11.8921 2.50408L11.8099 2.50001H5C4.77899 2.50001 4.56709 2.58787 4.41081 2.74415C4.25453 2.90043 4.16667 3.11233 4.16667 3.33334V16.6667C4.16667 16.8877 4.25453 17.0996 4.41081 17.2559C4.56709 17.4121 4.77899 17.5 5 17.5H15C15.221 17.5 15.4329 17.4121 15.5892 17.2559C15.7455 17.0996 15.8333 16.8877 15.8333 16.6667C15.8333 16.2064 16.2064 15.8333 16.6667 15.8333C17.1269 15.8333 17.5 16.2064 17.5 16.6667C17.5 17.3297 17.2364 17.9654 16.7676 18.4343C16.2987 18.9031 15.663 19.1667 15 19.1667H5C4.33696 19.1667 3.70126 18.9031 3.23242 18.4343C2.76358 17.9654 2.5 17.3297 2.5 16.6667ZM7.5 14.1667C7.96024 14.1667 8.33333 14.5398 8.33333 15C8.33333 15.4602 7.96024 15.8333 7.5 15.8333H6.66667C6.20643 15.8333 5.83333 15.4602 5.83333 15C5.83333 14.5398 6.20643 14.1667 6.66667 14.1667H7.5ZM17.5 9.27003C17.5 9.02158 17.4014 8.78328 17.2257 8.60759C17.0501 8.43191 16.8118 8.33334 16.5633 8.33334C16.3457 8.33335 16.136 8.40895 15.9692 8.54574L15.9009 8.60759L12.5594 11.9507L12.4902 12.0296C12.4262 12.1122 12.3781 12.2063 12.3486 12.3071L11.8636 13.9681L13.5254 13.4839L13.6239 13.4489C13.7197 13.4073 13.8067 13.3474 13.881 13.2731H13.8818L17.2257 9.93246L17.2876 9.8641C17.4244 9.69734 17.5 9.4876 17.5 9.27003ZM19.1667 9.27003C19.1667 9.91723 18.9259 10.5397 18.4937 11.0173L18.4041 11.1108L15.0594 14.4523C14.7625 14.7491 14.3955 14.9662 13.9925 15.0838L11.6007 15.7821C11.3857 15.8448 11.1577 15.8482 10.9408 15.7927C10.7237 15.737 10.5255 15.6239 10.367 15.4655C10.2086 15.3071 10.0955 15.1088 10.0399 14.8918C9.98432 14.6748 9.98778 14.4468 10.0505 14.2318L10.7487 11.84L10.7975 11.6903C10.9221 11.3459 11.1204 11.0321 11.3802 10.7723L14.7225 7.42921L14.8161 7.33969C15.2936 6.9074 15.9161 6.66668 16.5633 6.66668C17.2538 6.66668 17.9159 6.94097 18.4041 7.42921C18.8924 7.91745 19.1667 8.57955 19.1667 9.27003Z" fill="#334155"/>
</svg>
