<svg width="20" height="20" viewBox="0 0 20 20" fill="none" xmlns="http://www.w3.org/2000/svg">
<path d="M15.9341 12.5004C15.9341 12.2527 15.8358 12.0148 15.6606 11.8396L12.4274 8.60553V8.60635C12.1149 8.29428 11.6915 8.11888 11.2498 8.11888C10.8082 8.11888 10.3848 8.29428 10.0723 8.60635L10.0714 8.60553L9.33902 9.33958C8.85124 9.82726 8.18959 10.1013 7.49983 10.1013C6.81007 10.1013 6.14842 9.82726 5.66064 9.33958C5.17293 8.85188 4.89902 8.1901 4.89892 7.50039C4.89892 6.81054 5.17283 6.14819 5.66064 5.66038L7.15396 4.16706H3.18505L2.53157 11.3529L7.67235 16.4937C7.8476 16.669 8.08533 16.768 8.33316 16.768C8.58099 16.768 8.81873 16.669 8.99397 16.4937C9.16899 16.3186 9.2673 16.0813 9.26741 15.8337C9.26741 15.6169 9.19205 15.4076 9.05582 15.2413L8.99397 15.1729L8.5773 14.7563C8.25187 14.4308 8.25187 13.9025 8.5773 13.5771C8.90269 13.2519 9.4303 13.2519 9.75569 13.5771L11.4224 15.2437C11.5091 15.3305 11.6125 15.3994 11.7259 15.4464C11.8392 15.4933 11.9605 15.518 12.0832 15.518C12.2058 15.518 12.3271 15.4933 12.4404 15.4464C12.5538 15.3994 12.6572 15.3305 12.744 15.2437C12.8306 15.157 12.8997 15.0543 12.9466 14.941C12.9935 14.8277 13.0174 14.7063 13.0174 14.5837C13.0174 14.461 12.9936 14.339 12.9466 14.2257C12.9114 14.1406 12.864 14.0613 12.8058 13.9905L12.744 13.9229L11.0773 12.2563C10.7519 11.9308 10.7519 11.4025 11.0773 11.0771C11.4027 10.7519 11.9303 10.7519 12.2557 11.0771L14.339 13.1604C14.5143 13.3356 14.752 13.4346 14.9998 13.4346C15.2477 13.4346 15.4854 13.3356 15.6606 13.1604C15.8357 12.9853 15.934 12.748 15.9341 12.5004ZM17.6007 12.5004C17.6006 13.1901 17.3267 13.8519 16.839 14.3396C16.3512 14.8273 15.6896 15.1013 14.9998 15.1013C14.8777 15.1013 14.7565 15.0921 14.6369 15.0753C14.6037 15.2473 14.5537 15.4163 14.4863 15.579C14.3556 15.8945 14.1638 16.1814 13.9224 16.4229C13.6809 16.6644 13.3939 16.8554 13.0784 16.9861C12.7629 17.1168 12.4247 17.1846 12.0832 17.1846C11.7416 17.1846 11.4035 17.1168 11.0879 16.9861C10.9682 16.9365 10.8525 16.8784 10.742 16.8119C10.6124 17.1309 10.4205 17.4248 10.1724 17.6729C9.68457 18.1606 9.02292 18.4346 8.33316 18.4346C7.6434 18.4346 6.98175 18.1606 6.49397 17.6729L1.0773 12.2563L1.01545 12.1871C0.881904 12.02 0.816885 11.8067 0.836417 11.5914L1.66975 2.42471C1.71142 1.96636 2.11716 1.62865 2.57551 1.67031C3.00854 1.70981 3.33386 2.07372 3.33316 2.50039H9.04361C9.72872 2.08072 10.4993 1.80806 11.3068 1.70856C12.5559 1.55465 13.8202 1.82237 14.9005 2.46784L14.9014 2.46703L15.2928 2.70059L15.2969 2.70303L15.3652 2.74046C15.504 2.80746 15.6587 2.83418 15.812 2.81859L15.8885 2.80719L16.6763 2.6485L16.6698 2.57526C16.6282 2.11708 16.966 1.7121 17.4241 1.67031C17.8825 1.62865 18.2882 1.96636 18.3299 2.42471L19.1632 11.5914L18.3332 11.6662V11.6671L19.1632 11.5914C19.1844 11.8245 19.1062 12.0557 18.9484 12.2286C18.7905 12.4014 18.5673 12.5004 18.3332 12.5004H17.6007ZM6.56558 7.50039C6.56569 7.74798 6.664 7.98526 6.83902 8.16038C7.01426 8.33562 7.252 8.43464 7.49983 8.43464C7.74766 8.43464 7.98539 8.33562 8.16064 8.16038L8.89387 7.42715L9.01431 7.31322C9.62559 6.76045 10.4218 6.45221 11.2498 6.45221C12.0779 6.45221 12.8741 6.76045 13.4853 7.31322L13.6058 7.42715L16.839 10.6604C16.8943 10.7157 16.9464 10.7741 16.9961 10.8337H17.4209L16.8276 4.31761L16.214 4.44212L16.2108 4.44294C15.6023 4.56274 14.9713 4.45149 14.4399 4.13206V4.13288L14.0485 3.89932L14.0469 3.8985L14.4749 3.18317L14.6629 2.86742L14.0469 3.8985C13.2846 3.44281 12.3917 3.2544 11.5102 3.36302C10.6289 3.47171 9.80912 3.87123 9.18033 4.49828L6.83902 6.83958C6.6639 7.01481 6.56558 7.25266 6.56558 7.50039Z" fill="#334155"/>
</svg>
