<svg width="14" height="14" viewBox="0 0 14 14" fill="none" xmlns="http://www.w3.org/2000/svg">
<path d="M12.2497 5.14461L7.91341 7.90063L7.90999 7.90291L7.60067 7.40845L7.58073 7.37769L7.90999 7.90291C7.63714 8.07379 7.32163 8.16439 6.99967 8.16439C6.67772 8.16439 6.36222 8.07379 6.08936 7.90291L6.41805 7.37769L6.39868 7.40845L6.08936 7.90291L6.08594 7.90063L1.74967 5.14461V10.5C1.74967 10.8222 2.01084 11.0833 2.33301 11.0833H11.6663C11.9885 11.0833 12.2497 10.8222 12.2497 10.5V5.14461ZM12.2497 3.5C12.2497 3.17783 11.9885 2.91667 11.6663 2.91667H2.33301C2.01084 2.91667 1.74967 3.17783 1.74967 3.5V3.76261L6.70801 6.91398H6.70858C6.79584 6.96865 6.89671 6.99772 6.99967 6.99772C7.07694 6.99772 7.15294 6.98112 7.22298 6.94987L7.29077 6.91398L12.2497 3.76261V3.5ZM13.4163 10.5C13.4163 11.4665 12.6328 12.25 11.6663 12.25H2.33301C1.36651 12.25 0.583008 11.4665 0.583008 10.5V3.5C0.583008 2.5335 1.36651 1.75 2.33301 1.75H11.6663C12.6328 1.75 13.4163 2.5335 13.4163 3.5V10.5Z" fill="white"/>
</svg>
