<svg width="33" height="32" viewBox="0 0 33 32" fill="none" xmlns="http://www.w3.org/2000/svg">
<path d="M23.1673 10.6667C23.1673 8.8987 22.4643 7.20335 21.2142 5.95314C19.9641 4.70303 18.2686 4.00016 16.5007 4.00001C14.7326 4.00001 13.0361 4.70289 11.7858 5.95314C10.5358 7.20334 9.834 8.89874 9.834 10.6667C9.834 12.6407 10.9133 14.8294 12.4082 16.8646C13.8353 18.8075 15.5049 20.4286 16.4994 21.3268C17.494 20.4291 19.1644 18.8081 20.5918 16.8646C22.0865 14.8295 23.1673 12.6408 23.1673 10.6667ZM17.834 10.6667C17.834 9.93049 17.2368 9.33365 16.5007 9.33334C15.7643 9.33334 15.1673 9.9303 15.1673 10.6667C15.1673 11.4031 15.7643 12 16.5007 12C17.2368 11.9997 17.834 11.4029 17.834 10.6667ZM20.5007 10.6667C20.5007 12.8756 18.7095 14.6664 16.5007 14.6667C14.2915 14.6667 12.5007 12.8758 12.5007 10.6667C12.5007 8.45754 14.2915 6.66668 16.5007 6.66668C18.7095 6.66698 20.5007 8.45773 20.5007 10.6667ZM25.834 10.6667C25.834 13.0453 24.7827 15.3678 23.5072 17.3333H25.8327C26.3923 17.3334 26.9373 17.51 27.3913 17.8372C27.8455 18.1646 28.1857 18.6264 28.3626 19.1576L31.0293 27.1576L31.1113 27.4622C31.1749 27.7708 31.1825 28.0893 31.1348 28.4024C31.0711 28.8196 30.9101 29.2161 30.6634 29.5586C30.4166 29.9013 30.0913 30.1811 29.7155 30.3737C29.4336 30.5182 29.1286 30.6097 28.8158 30.6471L28.5007 30.6667H4.49936L4.50066 28H28.4994L25.8327 20H21.5072C20.2438 21.4866 18.989 22.6794 18.1999 23.3867C18.1739 23.41 18.1468 23.432 18.1192 23.4531L17.9395 23.5781C17.5113 23.8527 17.0123 23.9999 16.5007 24C15.9157 24 15.3458 23.8082 14.8809 23.4531C14.8531 23.4319 14.8261 23.4087 14.8001 23.3854C14.0117 22.6782 12.7562 21.4865 11.4929 20H7.17254L4.50066 28L4.49936 30.6667C4.07696 30.6665 3.66045 30.5663 3.28452 30.3737C2.90842 30.1809 2.5835 29.9003 2.3366 29.5573C2.08982 29.2144 1.92736 28.8175 1.86394 28.3997C1.80063 27.9821 1.83813 27.5556 1.97202 27.155L4.64389 19.155L4.71811 18.9596C4.90802 18.5116 5.21695 18.122 5.61394 17.8359C6.06746 17.5093 6.61233 17.3336 7.17124 17.3333H9.49285C8.2173 15.3679 7.16733 13.0452 7.16733 10.6667C7.16733 8.19132 8.15006 5.81676 9.9004 4.06642C11.6507 2.31625 14.0254 1.33334 16.5007 1.33334C18.9756 1.33349 21.3495 2.31644 23.0996 4.06642C24.85 5.81676 25.834 8.19132 25.834 10.6667Z" fill="white"/>
</svg>
