<svg width="24" height="24" viewBox="0 0 24 24" fill="none" xmlns="http://www.w3.org/2000/svg">
<g clip-path="url(#clip0_73_696)">
<path d="M19.0978 0C21.8052 0 24 2.03861 24 4.55336V19.4466C24 21.9614 21.8052 24 19.0978 24H4.90215C2.19478 24 0 21.9614 0 19.4466V4.55336C0 2.03861 2.19478 0 4.90215 0H19.0978ZM6.0554 4.55336C6.00931 4.55336 5.96225 4.55335 5.91616 4.59959C5.77786 4.64585 5.63861 4.83098 5.63861 5.01701V13.0904C5.63861 15.0384 5.59247 16.8023 5.45418 18.519L5.40711 19.0289H8.32198V18.519C8.13758 16.6625 8.13763 15.2707 8.13763 13.3217V10.2133L17.1129 18.8438L17.5748 19.2612C17.7141 19.4462 17.9455 19.4934 18.0839 19.4C18.2692 19.3537 18.3614 19.1686 18.3614 18.9363V11.9299C18.3614 9.14622 18.4075 7.38327 18.5468 5.48058L18.5929 4.92447H15.678L15.725 5.48058C15.9094 7.42954 15.9094 8.86768 15.9094 11.2803V13.7863L6.42521 4.69213C6.33301 4.5996 6.1937 4.55336 6.0554 4.55336Z" fill="#006BB6"/>
</g>
<defs>
<clipPath id="clip0_73_696">
<rect width="24" height="24" fill="white"/>
</clipPath>
</defs>
</svg>
