<svg width="33" height="32" viewBox="0 0 33 32" fill="none" xmlns="http://www.w3.org/2000/svg">
<path d="M25.8333 7.99943C23.2038 7.99943 20.1993 6.70924 17.8333 4.99292V27.5098C19.9578 26.6463 21.8066 25.5581 23.1849 24.144C24.8053 22.4814 25.8333 20.3139 25.8333 17.3328V7.99943ZM7.16667 17.3328C7.16667 20.3137 8.19414 22.481 9.8151 24.1414C11.1926 25.5522 13.0414 26.6371 15.1667 27.4955V4.99162C12.8942 6.63766 10.0163 7.90344 7.45833 7.99422L7.16667 7.99943V17.3328ZM28.5 17.3328C28.5 21.0183 27.1946 23.8518 25.0951 26.0059C23.0318 28.1228 20.2606 29.5256 17.3919 30.5255L17.3815 30.5294L17.1615 30.5932C16.6538 30.7179 16.1197 30.69 15.625 30.5125V30.5138C15.6172 30.511 15.6094 30.5074 15.6016 30.5046C15.5995 30.5039 15.5971 30.5041 15.5951 30.5033V30.502C12.7294 29.5094 9.96608 28.1129 7.90755 26.0046C5.80559 23.8518 4.5 21.0181 4.5 17.3328V7.99943C4.50016 7.2924 4.7813 6.61397 5.28125 6.11401C5.78132 5.6141 6.45956 5.33276 7.16667 5.33276C9.40183 5.33276 12.4354 3.93498 14.6094 2.03589L14.6211 2.02677L14.8229 1.86792C15.3109 1.52083 15.8969 1.33276 16.5 1.33276C17.1031 1.33276 17.6891 1.52083 18.1771 1.86792L18.3789 2.02677L18.3906 2.03589L18.8099 2.38875C20.9511 4.11577 23.737 5.33276 25.8333 5.33276C26.5404 5.33276 27.2187 5.6141 27.7188 6.11401C28.2187 6.61397 28.4998 7.29241 28.5 7.99943V17.3328Z" fill="white"/>
</svg>
