<svg width="32" height="32" viewBox="0 0 32 32" fill="none" xmlns="http://www.w3.org/2000/svg">
<path d="M25.3337 20C25.3337 18.5273 24.1398 17.3334 22.667 17.3334C21.1942 17.3334 20.0003 18.5273 20.0003 20C20.0003 21.4728 21.1942 22.6667 22.667 22.6667C23.3078 22.6667 23.8946 22.4392 24.3545 22.0625C24.4028 21.9898 24.4596 21.9209 24.5238 21.8568C24.5879 21.7926 24.6567 21.7359 24.7295 21.6875C25.1062 21.2277 25.3337 20.6408 25.3337 20ZM13.3337 22.6667C14.07 22.6667 14.667 23.2636 14.667 24C14.667 24.7364 14.07 25.3334 13.3337 25.3334H4.00033C3.26395 25.3334 2.66699 24.7364 2.66699 24C2.66699 23.2636 3.26395 22.6667 4.00033 22.6667H13.3337ZM13.3337 14.6667C14.07 14.6667 14.667 15.2636 14.667 16C14.667 16.7364 14.07 17.3334 13.3337 17.3334H4.00033C3.26395 17.3334 2.66699 16.7364 2.66699 16C2.66699 15.2636 3.26395 14.6667 4.00033 14.6667H13.3337ZM28.0003 6.66669C28.7367 6.66669 29.3337 7.26364 29.3337 8.00002C29.3337 8.7364 28.7367 9.33335 28.0003 9.33335H4.00033C3.26395 9.33335 2.66699 8.7364 2.66699 8.00002C2.66699 7.26364 3.26395 6.66669 4.00033 6.66669H28.0003ZM28.0003 20C28.0003 20.989 27.7299 21.9144 27.2607 22.7084L28.943 24.3906C29.4637 24.9113 29.4637 25.7554 28.943 26.2761C28.4223 26.7968 27.5783 26.7968 27.0576 26.2761L25.3753 24.5938C24.5814 25.0629 23.656 25.3334 22.667 25.3334C19.7215 25.3334 17.3337 22.9455 17.3337 20C17.3337 17.0545 19.7215 14.6667 22.667 14.6667C25.6125 14.6667 28.0003 17.0545 28.0003 20Z" fill="white"/>
</svg>
