<svg width="20" height="20" viewBox="0 0 20 20" fill="none" xmlns="http://www.w3.org/2000/svg">
<path d="M1.66699 17.5V15.8333C1.66699 14.7283 2.10629 13.6688 2.8877 12.8874C3.6691 12.106 4.72859 11.6667 5.83366 11.6667H8.5835C9.04373 11.6667 9.41683 12.0398 9.41683 12.5C9.41683 12.9602 9.04373 13.3333 8.5835 13.3333H5.83366C5.17062 13.3333 4.53492 13.5969 4.06608 14.0658C3.59724 14.5346 3.33366 15.1703 3.33366 15.8333V17.5C3.33366 17.9602 2.96056 18.3333 2.50033 18.3333C2.04009 18.3333 1.66699 17.9602 1.66699 17.5ZM15.8337 14.1667C15.8337 13.2462 15.0875 12.5 14.167 12.5C13.2465 12.5 12.5003 13.2462 12.5003 14.1667C12.5003 15.0871 13.2465 15.8333 14.167 15.8333C14.5675 15.8333 14.9343 15.6912 15.2217 15.4557C15.2519 15.4103 15.2874 15.3672 15.3275 15.3272C15.3676 15.2871 15.4106 15.2516 15.4561 15.2214C15.6915 14.934 15.8337 14.5672 15.8337 14.1667ZM10.8337 5.83334C10.8337 4.45263 9.71437 3.33334 8.33366 3.33334C6.95295 3.33334 5.83366 4.45263 5.83366 5.83334C5.83366 7.21405 6.95295 8.33334 8.33366 8.33334C9.71437 8.33334 10.8337 7.21405 10.8337 5.83334ZM17.5003 14.1667C17.5003 14.7848 17.3313 15.3631 17.0381 15.8594L18.0895 16.9108C18.415 17.2363 18.415 17.7638 18.0895 18.0892C17.7641 18.4146 17.2366 18.4146 16.9111 18.0892L15.8597 17.0378C15.3635 17.331 14.7851 17.5 14.167 17.5C12.326 17.5 10.8337 16.0076 10.8337 14.1667C10.8337 12.3257 12.326 10.8333 14.167 10.8333C16.0079 10.8333 17.5003 12.3257 17.5003 14.1667ZM12.5003 5.83334C12.5003 8.13452 10.6348 10 8.33366 10C6.03247 10 4.16699 8.13452 4.16699 5.83334C4.16699 3.53215 6.03247 1.66667 8.33366 1.66667C10.6348 1.66667 12.5003 3.53215 12.5003 5.83334Z" fill="#334155"/>
</svg>
